<svg width="32" height="32" viewBox="0 0 32 32" fill="none" xmlns="http://www.w3.org/2000/svg">
<g clip-path="url(#clip0)">
<path d="M30.2222 0H1.77778C1.30628 0 0.854097 0.187301 0.520699 0.520699C0.187301 0.854097 0 1.30628 0 1.77778L0 30.2222C0 30.6937 0.187301 31.1459 0.520699 31.4793C0.854097 31.8127 1.30628 32 1.77778 32H17.0933V19.6267H12.9378V14.7822H17.0933V11.2267C17.0933 7.09333 19.6178 4.84 23.3156 4.84C24.5596 4.83636 25.8029 4.90016 27.04 5.03111V9.33333H24.4889C22.4844 9.33333 22.0933 10.2889 22.0933 11.6889V14.7733H26.8889L26.2667 19.6178H22.0933V32H30.2222C30.6937 32 31.1459 31.8127 31.4793 31.4793C31.8127 31.1459 32 30.6937 32 30.2222V1.77778C32 1.30628 31.8127 0.854097 31.4793 0.520699C31.1459 0.187301 30.6937 0 30.2222 0V0Z" fill="black"/>
</g>
<defs>
<clipPath id="clip0">
<rect width="32" height="32" fill="white"/>
</clipPath>
</defs>
</svg>
