<svg width="1920" height="1060" viewBox="0 0 1920 1060" fill="none" xmlns="http://www.w3.org/2000/svg">
<path d="M1576.94 235.983C1396.89 135.333 1175.43 182.343 1049.94 335.373L1111.94 405.673C1153.16 452.383 1209.14 483.571 1270.55 494.049C1331.96 504.527 1395.11 493.662 1449.49 463.263C1602.56 377.693 1783.16 390.263 1919.89 479.393V146.193L1887.43 182.983C1849.52 225.956 1798.03 254.651 1741.54 264.293C1685.05 273.936 1626.96 263.945 1576.94 235.983Z" fill="#FF7E2D"/>
<path d="M1449.49 463.263C1395.11 493.662 1331.96 504.527 1270.55 494.049C1209.14 483.571 1153.16 452.383 1111.94 405.673L1049.94 335.373L952.87 225.373C882.525 145.634 794.107 83.8997 695.013 45.3359C595.919 6.77208 489.031 -7.5002 383.29 3.71307L334.6 8.87307C212.454 21.6706 96.4376 68.8263 0 144.873V1060.93H1919.89V479.393C1783.16 390.263 1602.56 377.693 1449.49 463.263Z" fill="#A4D7EB"/>
</svg>
