<svg width="32" height="32" viewBox="0 0 32 32" fill="none" xmlns="http://www.w3.org/2000/svg">
<path fill-rule="evenodd" clip-rule="evenodd" d="M29.5187 0H2.3616C1.05727 0 0 1.02673 0 2.28587V29.5984C0 30.8536 1.05727 31.8777 2.3616 31.8777H29.5174C30.8231 31.8777 31.8777 30.8536 31.8777 29.5984V2.28587C31.8777 1.02673 30.823 0 29.5187 0ZM9.66687 26.6829H4.85207V12.2941H9.66693V26.6829H9.66687ZM7.25613 10.331H7.22427C5.6078 10.331 4.56247 9.21793 4.56247 7.84187C4.56247 6.42727 5.63967 5.35273 7.28667 5.35273C8.935 5.35273 9.94847 6.42727 9.979 7.84187C9.98033 9.21793 8.93633 10.331 7.25613 10.331ZM27.0256 26.6829H22.2201V18.9871C22.2201 17.0532 21.5135 15.7237 19.7708 15.7237C18.4333 15.7237 17.6509 16.6189 17.3069 17.4875C17.1807 17.7824 17.1475 18.2141 17.1475 18.6471V26.6829H12.33C12.33 26.6829 12.3911 13.6409 12.33 12.2941H17.1475V14.3343C17.7798 13.3553 18.9247 11.9541 21.4815 11.9541C24.6533 11.9541 27.0256 14.0115 27.0256 18.4319V26.6829ZM17.1183 14.413C17.1251 14.388 17.1364 14.363 17.166 14.3357V14.413H17.1183Z" fill="black"/>
</svg>
