
<svg width="284" height="222" viewBox="0 0 284 222" fill="none" xmlns="http://www.w3.org/2000/svg">
<g filter="url(#filter0_d)">
<path d="M234 107C234 180.147 213.244 167.098 146.678 167.098C80.1125 167.098 50 180.147 50 107C50 33.8533 80.1125 46.9024 146.678 46.9024C213.244 46.9024 234 33.8533 234 107Z" fill="white"/>
</g>
<g filter="url(#filter1_d)">
<path d="M140.5 114.206C123.431 114.206 72.1129 83.0907 61.2446 60.2158C60.7237 59.1195 60.6802 57.8612 61.2997 56.8173C77.2549 29.9302 229.841 40.5853 222 54.9997C200.365 94.7729 152.593 114.206 140.5 114.206Z" fill="white"/>
</g>
<defs>
<filter id="filter0_d" x="0" y="0" width="284" height="222" filterUnits="userSpaceOnUse" color-interpolation-filters="sRGB">
<feFlood flood-opacity="0" result="BackgroundImageFix"/>
<feColorMatrix in="SourceAlpha" type="matrix" values="0 0 0 0 0 0 0 0 0 0 0 0 0 0 0 0 0 0 127 0"/>
<feOffset dy="4"/>
<feGaussianBlur stdDeviation="25"/>
<feColorMatrix type="matrix" values="0 0 0 0 0 0 0 0 0 0 0 0 0 0 0 0 0 0 0.15 0"/>
<feBlend mode="normal" in2="BackgroundImageFix" result="effect1_dropShadow"/>
<feBlend mode="normal" in="SourceGraphic" in2="effect1_dropShadow" result="shape"/>
</filter>
<filter id="filter1_d" x="30.8447" y="14.248" width="221.447" height="133.958" filterUnits="userSpaceOnUse" color-interpolation-filters="sRGB">
<feFlood flood-opacity="0" result="BackgroundImageFix"/>
<feColorMatrix in="SourceAlpha" type="matrix" values="0 0 0 0 0 0 0 0 0 0 0 0 0 0 0 0 0 0 127 0"/>
<feOffset dy="4"/>
<feGaussianBlur stdDeviation="15"/>
<feColorMatrix type="matrix" values="0 0 0 0 0 0 0 0 0 0 0 0 0 0 0 0 0 0 0.25 0"/>
<feBlend mode="normal" in2="BackgroundImageFix" result="effect1_dropShadow"/>
<feBlend mode="normal" in="SourceGraphic" in2="effect1_dropShadow" result="shape"/>
</filter>
</defs>
</svg>
