<svg width="37" height="30" viewBox="0 0 37 30" fill="none" xmlns="http://www.w3.org/2000/svg">
<path d="M11.6589 29.7303C25.5741 29.7303 33.1851 18.3971 33.1851 8.56904C33.1851 8.24714 33.1851 7.92669 33.163 7.60769C34.6436 6.55486 35.9217 5.25127 36.9375 3.75794C35.5567 4.3594 34.092 4.75384 32.5921 4.92809C34.1715 3.99861 35.3535 2.53671 35.9183 0.81444C34.4332 1.68075 32.8084 2.29128 31.1142 2.61969C29.9735 1.42733 28.4649 0.637784 26.8218 0.373224C25.1786 0.108664 23.4926 0.383842 22.0246 1.15618C20.5566 1.92851 19.3884 3.15494 18.7009 4.64568C18.0133 6.13643 17.8448 7.80837 18.2212 9.40279C15.2133 9.25455 12.2708 8.48614 9.58457 7.14745C6.89836 5.80875 4.52856 3.92968 2.629 1.63224C1.66154 3.26952 1.36522 5.20774 1.80039 7.05225C2.23555 8.89676 3.36948 10.5089 4.9713 11.5604C3.76732 11.5253 2.58959 11.206 1.5375 10.6295C1.5375 10.6599 1.5375 10.6918 1.5375 10.7237C1.53798 12.4409 2.14264 14.1049 3.24892 15.4338C4.3552 16.7626 5.89499 17.6743 7.60712 18.0143C6.49331 18.313 5.32468 18.3566 4.19102 18.1419C4.67447 19.6197 5.61567 20.912 6.883 21.8381C8.15033 22.7642 9.6804 23.2777 11.2592 23.3068C8.58023 25.3766 5.27081 26.5002 1.86347 26.4968C1.26153 26.4957 0.660176 26.4599 0.0625 26.3895C3.52231 28.5722 7.54799 29.7299 11.6589 29.7245" fill="black"/>
</svg>
